<?xml version="1.0" standalone="no"?>
<!DOCTYPE svg PUBLIC "-//W3C//DTD SVG 20010904//EN"
 "http://www.w3.org/TR/2001/REC-SVG-20010904/DTD/svg10.dtd">
<svg version="1.0" xmlns="http://www.w3.org/2000/svg"
 width="512.000000pt" height="512.000000pt" viewBox="0 0 512.000000 512.000000"
 preserveAspectRatio="xMidYMid meet">

<g transform="translate(0.000000,512.000000) scale(0.100000,-0.100000)"
fill="#000000" stroke="none">
<path d="M0 2560 l0 -2560 2560 0 2560 0 0 2560 0 2560 -2560 0 -2560 0 0
-2560z m3015 1461 c155 -52 319 -158 406 -263 96 -115 168 -262 169 -341 1
-181 -199 -280 -347 -171 -19 15 -47 56 -73 108 -56 115 -113 177 -204 222
-92 45 -155 53 -406 53 -251 0 -314 -8 -406 -53 -248 -123 -309 -448 -123
-660 45 -50 100 -86 182 -119 47 -18 82 -21 392 -27 316 -6 345 -8 410 -30
292 -94 509 -319 586 -606 31 -116 31 -308 0 -424 -78 -294 -296 -519 -591
-612 -73 -22 -85 -23 -450 -23 -365 0 -377 1 -450 23 -253 80 -451 256 -552
492 -33 77 -36 147 -9 205 58 126 213 164 328 79 19 -15 47 -56 73 -108 56
-115 113 -177 204 -222 92 -45 155 -53 406 -53 251 0 314 8 406 53 248 123
309 449 123 660 -44 50 -100 86 -182 119 -47 18 -82 21 -387 27 -376 8 -392
10 -545 84 -501 240 -638 887 -280 1320 83 100 253 215 380 256 108 36 148 39
510 36 347 -2 363 -3 430 -25z"/>
</g>
</svg>
